M48
; DRILL file {KiCad 7.0.5} date Sun Mar 24 22:19:19 2024
; FORMAT={-:-/ absolute / metric / decimal}
; #@! TF.CreationDate,2024-03-24T22:19:19+04:00
; #@! TF.GenerationSoftware,Kicad,Pcbnew,7.0.5
; #@! TF.FileFunction,Plated,1,2,PTH
FMAT,2
METRIC
; #@! TA.AperFunction,Plated,PTH,ComponentDrill
T1C0.750
; #@! TA.AperFunction,Plated,PTH,ComponentDrill
T2C0.800
; #@! TA.AperFunction,Plated,PTH,ComponentDrill
T3C0.900
; #@! TA.AperFunction,Plated,PTH,ComponentDrill
T4C1.000
; #@! TA.AperFunction,Plated,PTH,ComponentDrill
T5C1.200
; #@! TA.AperFunction,Plated,PTH,ComponentDrill
T6C1.500
; #@! TA.AperFunction,Plated,PTH,ComponentDrill
T7C1.520
%
G90
G05
T1
X59.69Y139.7
X60.96Y139.7
X62.23Y139.7
T2
X40.64Y139.7
X40.64Y154.94
X46.99Y139.7
X46.99Y154.94
X48.3Y114.3
X53.3Y114.3
X53.34Y139.7
X53.34Y154.94
X57.15Y146.05
X57.15Y156.21
X57.15Y171.45
X62.23Y121.92
X62.23Y124.46
X62.23Y127.0
X62.23Y129.54
X62.23Y158.75
X62.23Y161.29
X62.23Y163.83
X62.23Y166.37
X69.85Y121.92
X69.85Y124.46
X69.85Y127.0
X69.85Y129.54
X69.85Y158.75
X69.85Y161.29
X69.85Y163.83
X69.85Y166.37
X72.39Y146.05
X76.2Y120.65
X76.2Y135.89
T3
X63.5Y106.68
X63.5Y114.3
X73.66Y106.68
X73.66Y114.3
X76.2Y146.05
X78.74Y146.05
T4
X57.15Y120.65
X57.15Y128.15
X59.69Y152.4
X67.19Y152.4
X71.24Y139.7
X71.24Y152.4
X75.05Y171.45
X76.2Y157.6
X76.2Y165.1
X78.74Y139.7
X78.74Y152.4
X82.55Y157.6
X82.55Y165.1
X82.55Y171.45
T5
X38.1Y127.0
X44.45Y163.95
X44.45Y171.45
X45.6Y127.0
T6
X85.09Y152.4
T7
X64.77Y177.8
X69.85Y177.8
T0
M30
